<svg width="16" height="17" viewBox="0 0 16 17" fill="none" xmlns="http://www.w3.org/2000/svg">
<path d="M15.7339 6.05891L8.23387 2.05891C8.16153 2.02039 8.08082 2.00024 7.99887 2.00024C7.91691 2.00024 7.83621 2.02039 7.76387 2.05891L0.263867 6.05891C0.18387 6.10154 0.116968 6.16512 0.0703172 6.24285C0.0236668 6.32057 -0.000976562 6.40951 -0.000976562 6.50016C-0.000976563 6.59081 0.0236668 6.67975 0.0703172 6.75748C0.116968 6.8352 0.18387 6.89878 0.263867 6.94141L1.99887 7.86704V10.8933C1.99835 11.1389 2.08874 11.376 2.25262 11.5589C3.07137 12.4708 4.90574 14.0002 7.99887 14.0002C9.02446 14.0086 10.0424 13.8229 10.9989 13.4527V15.5002C10.9989 15.6328 11.0515 15.7599 11.1453 15.8537C11.2391 15.9475 11.3663 16.0002 11.4989 16.0002C11.6315 16.0002 11.7587 15.9475 11.8524 15.8537C11.9462 15.7599 11.9989 15.6328 11.9989 15.5002V12.9695C12.6509 12.5932 13.2401 12.1172 13.7451 11.5589C13.909 11.376 13.9994 11.1389 13.9989 10.8933V7.86704L15.7339 6.94141C15.8139 6.89878 15.8808 6.8352 15.9274 6.75748C15.9741 6.67975 15.9987 6.59081 15.9987 6.50016C15.9987 6.40951 15.9741 6.32057 15.9274 6.24285C15.8808 6.16512 15.8139 6.10154 15.7339 6.05891ZM7.99887 13.0002C5.29449 13.0002 3.70387 11.6789 2.99887 10.8933V8.40016L7.76387 10.9414C7.83621 10.9799 7.91691 11.0001 7.99887 11.0001C8.08082 11.0001 8.16153 10.9799 8.23387 10.9414L10.9989 9.46704V12.3633C10.2114 12.7308 9.21887 13.0002 7.99887 13.0002ZM12.9989 10.8908C12.6991 11.2234 12.3638 11.522 11.9989 11.7814V8.93329L12.9989 8.40016V10.8908ZM11.7489 7.93391L11.7351 7.92579L8.23512 6.05891C8.11834 5.99927 7.98281 5.98788 7.85773 6.02721C7.73264 6.06653 7.628 6.15342 7.56637 6.26915C7.50473 6.38489 7.49102 6.5202 7.5282 6.64595C7.56537 6.77169 7.65046 6.8778 7.76512 6.94141L10.6864 8.50016L7.99887 9.93329L1.56137 6.50016L7.99887 3.06704L14.4364 6.50016L11.7489 7.93391Z" fill="#343330"/>
</svg>
